<svg width="36" height="36" viewBox="0 0 36 36" fill="none" xmlns="http://www.w3.org/2000/svg">
<path fill-rule="evenodd" clip-rule="evenodd" d="M11.244 4.5H24.7575C28.4805 4.5 31.5 7.518 31.5 11.244V24.7575C31.5 28.4805 28.482 31.5 24.756 31.5H11.244C7.5195 31.5 4.5 28.482 4.5 24.756V11.244C4.5 7.5195 7.518 4.5 11.244 4.5V4.5Z" stroke="black" stroke-width="2.25" stroke-linecap="round" stroke-linejoin="round"/>
<path d="M25.4231 10.0699C25.1441 10.0714 24.9176 10.2979 24.9176 10.5769C24.9176 10.8559 25.1456 11.0824 25.4246 11.0824C25.7036 11.0824 25.9301 10.8559 25.9301 10.5769C25.9316 10.2964 25.7036 10.0699 25.4231 10.0699" stroke="black" stroke-width="2.25" stroke-linecap="round" stroke-linejoin="round"/>
<path d="M21.8188 14.1821C23.9277 16.2909 23.9277 19.71 21.8188 21.8188C19.71 23.9277 16.2909 23.9277 14.1821 21.8188C12.0733 19.71 12.0733 16.2909 14.1821 14.1821C16.2909 12.0733 19.71 12.0733 21.8188 14.1821" stroke="black" stroke-width="2.25" stroke-linecap="round" stroke-linejoin="round"/>
</svg>
