<svg width="853" height="111" viewBox="0 0 853 111" fill="none" xmlns="http://www.w3.org/2000/svg">
<g clip-path="url(#clip0_77_2)">
<path d="M-704.81 110.886C-705.517 109.344 -706.191 107.161 -706.833 104.336C-707.411 101.445 -707.925 98.3947 -708.375 95.1837C-708.824 91.9081 -709.177 88.8575 -709.434 86.0319C-709.627 83.1418 -709.723 80.9261 -709.723 79.3849H-697.874C-696.14 82.2751 -692.833 84.908 -687.952 87.284C-683.071 89.6607 -676.938 91.6836 -669.552 93.3535C-654.396 96.8213 -635.611 98.5551 -613.197 98.5551C-606.903 98.5551 -601.894 97.7202 -598.169 96.0504C-594.508 94.3811 -592.678 92.2935 -592.678 89.7888C-592.678 87.6054 -593.834 85.8715 -596.146 84.5871C-598.394 83.2381 -601.477 82.1464 -605.394 81.3115C-610.596 80.2198 -616.858 79.449 -624.179 78.9995C-631.501 78.55 -639.304 78.0365 -647.588 77.4583C-655.809 76.8802 -663.901 75.9171 -671.864 74.5681C-679.699 73.2197 -686.892 71.2931 -693.443 68.7883C-699.994 66.2836 -705.228 62.8158 -709.145 58.3845C-712.999 53.9529 -714.925 48.2371 -714.925 41.2369C-714.925 33.9798 -712.838 27.7823 -708.664 22.6446C-704.425 17.4426 -698.581 13.1717 -691.131 9.83218C-683.874 6.62107 -675.429 4.24486 -665.795 2.70352C-656.162 1.09797 -645.79 0.295186 -634.679 0.295186C-626.074 0.295186 -617.436 0.552074 -608.766 1.06585C-600.032 1.51541 -591.683 2.02919 -583.719 2.60719C-575.691 3.18519 -568.434 3.73108 -561.948 4.24486C-555.397 4.69441 -550.259 4.9192 -546.534 4.9192C-542.103 4.9192 -537.287 4.59808 -532.084 3.95586C-526.818 3.24941 -522.74 1.99708 -519.85 0.198853C-518.887 2.25397 -518.052 5.17608 -517.346 8.96518C-516.575 12.7543 -515.997 16.5434 -515.611 20.3325C-515.162 24.1217 -514.937 27.108 -514.937 29.2916H-526.497C-527.782 27.1722 -530.768 24.9565 -535.456 22.6446C-540.08 20.3325 -545.988 18.2774 -553.181 16.4792C-560.374 14.6168 -568.595 13.1075 -577.843 11.9516C-587.027 10.7955 -596.788 10.2176 -607.128 10.2176C-608.541 10.2176 -610.436 10.4102 -612.812 10.7955C-615.188 11.1166 -617.339 11.8231 -619.266 12.9149C-621.129 14.0067 -622.06 15.7407 -622.06 18.1169C-622.06 20.2362 -620.968 21.9702 -618.784 23.3189C-616.601 24.6676 -613.614 25.7915 -609.825 26.6905C-606.037 27.5897 -601.637 28.3603 -596.628 29.0026C-591.619 29.5805 -586.288 30.1586 -580.637 30.7366C-574.985 31.3788 -569.173 32.0852 -563.2 32.8559C-557.227 33.6266 -551.415 34.6541 -545.764 35.9386C-538.122 37.6083 -531.185 39.8882 -524.956 42.7783C-518.662 45.6683 -513.653 49.4253 -509.928 54.0492C-506.203 58.6089 -504.341 64.357 -504.341 71.2931C-504.341 76.8802 -506.235 82.0183 -510.024 86.7064C-513.749 91.3946 -518.983 95.4405 -525.726 98.8442C-532.47 102.313 -540.465 105.009 -549.713 106.937C-558.962 108.863 -569.076 109.826 -580.058 109.826C-589.05 109.826 -597.944 109.602 -606.743 109.152C-615.477 108.702 -624.019 108.189 -632.367 107.611C-640.717 107.032 -648.841 106.519 -656.74 106.069C-664.639 105.62 -672.185 105.395 -679.378 105.395C-683.617 105.395 -688.209 105.78 -693.154 106.551C-698.099 107.386 -701.984 108.831 -704.81 110.886ZM-358.592 109.826C-377.023 109.826 -393.753 108.927 -408.781 107.129C-423.745 105.331 -436.526 102.377 -447.122 98.2661C-457.719 94.1561 -465.907 88.7935 -471.687 82.1787C-477.467 75.4994 -480.357 67.2789 -480.357 57.5172C-480.357 47.9482 -477.339 39.535 -471.302 32.2779C-465.265 24.9565 -456.884 18.9518 -446.159 14.2635C-438.902 11.0524 -430.874 8.45142 -422.075 6.46054C-413.277 4.40541 -403.74 2.86408 -393.464 1.83652C-383.189 0.808966 -372.4 0.295186 -361.096 0.295186C-346.004 0.295186 -332.325 1.35485 -320.058 3.47419C-307.792 5.59354 -297.291 8.86888 -288.557 13.3002C-279.887 17.7957 -273.176 23.5436 -268.423 30.5439C-263.671 37.5441 -261.295 45.9251 -261.295 55.687H-386.914C-386.015 70.4582 -381.776 80.862 -374.198 86.8992C-366.619 92.9357 -354.802 95.9546 -338.747 95.9546C-330.976 95.9546 -323.333 95.4082 -315.82 94.3165C-308.306 93.1608 -301.434 91.4909 -295.204 89.3076C-288.91 87.1882 -283.805 84.4585 -279.887 81.1188C-275.905 77.7791 -273.915 73.9905 -273.915 69.7514H-261.295C-261.295 76.8161 -264.088 82.9173 -269.676 88.0549C-275.263 93.1285 -282.552 97.239 -291.544 100.385C-300.599 103.532 -310.907 105.877 -322.467 107.418C-334.026 109.024 -346.068 109.826 -358.592 109.826ZM-387.01 44.8976H-347.995C-347.995 39.0534 -348.477 34.0761 -349.44 29.9659C-350.339 25.7915 -351.559 22.3877 -353.101 19.7545C-354.706 17.1214 -356.601 15.1948 -358.784 13.9745C-360.968 12.6901 -363.312 12.0479 -365.817 12.0479C-368.578 12.0479 -371.211 12.6901 -373.716 13.9745C-376.157 15.1948 -378.308 17.1214 -380.17 19.7545C-382.097 22.4519 -383.67 25.8878 -384.891 30.0622C-386.047 34.1725 -386.753 39.1176 -387.01 44.8976ZM-117.085 109.826C-135.519 109.826 -152.25 108.927 -167.279 107.129C-182.241 105.331 -195.021 102.377 -205.618 98.2661C-216.215 94.1561 -224.403 88.7935 -230.183 82.1787C-235.963 75.4994 -238.853 67.2789 -238.853 57.5172C-238.853 47.9482 -235.835 39.535 -229.798 32.2779C-223.761 24.9565 -215.38 18.9518 -204.654 14.2635C-197.397 11.0524 -189.37 8.45142 -180.571 6.46054C-171.773 4.40541 -162.236 2.86408 -151.96 1.83652C-141.684 0.808966 -130.893 0.295186 -119.593 0.295186C-104.498 0.295186 -90.8221 1.35485 -78.553 3.47419C-66.2893 5.59354 -55.7885 8.86888 -47.0507 13.3002C-38.3839 17.7957 -31.6718 23.5436 -26.9196 30.5439C-22.1674 37.5441 -19.7914 45.9251 -19.7914 55.687H-145.412C-144.509 70.4582 -140.271 80.862 -132.694 86.8992C-125.117 92.9357 -113.296 95.9546 -97.2442 95.9546C-89.4699 95.9546 -81.827 95.4082 -74.3155 94.3165C-66.804 93.1608 -59.9276 91.4909 -53.7026 89.3076C-47.4065 87.1882 -42.2985 84.4585 -38.384 81.1188C-34.4037 77.7791 -32.4109 73.9905 -32.4109 69.7514H-19.7914C-19.7914 76.8161 -22.5835 82.9173 -28.1733 88.0549C-33.7577 93.1285 -41.0502 97.239 -50.04 100.385C-59.0954 103.532 -69.4045 105.877 -80.962 107.418C-92.5248 109.024 -104.564 109.826 -117.085 109.826ZM-145.505 44.8976H-106.491C-106.491 39.0534 -106.973 34.0761 -107.937 29.9659C-108.834 25.7915 -110.055 22.3877 -111.594 19.7545C-113.203 17.1214 -115.098 15.1948 -117.282 13.9745C-119.461 12.6901 -121.81 12.0479 -124.312 12.0479C-127.077 12.0479 -129.705 12.6901 -132.212 13.9745C-134.654 15.1948 -136.806 17.1214 -138.667 19.7545C-140.594 22.4519 -142.165 25.8878 -143.386 30.0622C-144.542 34.1725 -145.248 39.1176 -145.505 44.8976ZM14.3061 110.886C13.5999 109.344 12.9265 107.161 12.2859 104.336C11.7056 101.445 11.1909 98.3947 10.7419 95.1837C10.293 91.9081 9.94263 88.8575 9.68536 86.0319C9.48822 83.1418 9.39514 80.9261 9.39514 79.3849H21.2427C22.9783 82.2751 26.2851 84.908 31.1632 87.284C36.0468 89.6607 42.1786 91.6836 49.5642 93.3535C64.7241 96.8213 83.5083 98.5551 105.922 98.5551C112.213 98.5551 117.223 97.7202 120.951 96.0504C124.608 94.3811 126.442 92.2935 126.442 89.7888C126.442 87.6054 125.281 85.8715 122.971 84.5871C120.726 83.2381 117.639 82.1464 113.724 81.3115C108.523 80.2198 102.26 79.449 94.9398 78.9995C87.6199 78.55 79.8128 78.0365 71.5294 77.4583C63.3116 76.8802 55.2197 75.9171 47.2538 74.5681C39.4193 73.2197 32.2253 71.2931 25.6774 68.7883C19.124 66.2836 13.89 62.8158 9.97003 58.3845C6.12122 53.9529 4.19403 48.2371 4.19403 41.2369C4.19403 33.9798 6.27997 27.7823 10.4518 22.6446C14.6948 17.4426 20.5365 13.1717 27.9877 9.83218C35.2419 6.62107 43.6896 4.24486 53.3199 2.70352C62.9557 1.09797 73.3251 0.295186 84.439 0.295186C93.0455 0.295186 101.679 0.552074 110.352 1.06585C119.084 1.51541 127.433 2.02919 135.399 2.60719C143.425 3.18519 150.685 3.73108 157.173 4.24486C163.721 4.69441 168.856 4.9192 172.584 4.9192C177.013 4.9192 181.831 4.59808 187.032 3.95586C192.299 3.24941 196.378 1.99708 199.269 0.198853C200.232 2.25397 201.065 5.17608 201.771 8.96518C202.543 12.7543 203.123 16.5434 203.506 20.3325C203.955 24.1217 204.18 27.108 204.18 29.2916H192.622C191.336 27.1722 188.352 24.9565 183.66 22.6446C179.039 20.3325 173.132 18.2774 165.938 16.4792C158.744 14.6168 150.521 13.1075 141.274 11.9516C132.092 10.7955 122.331 10.2176 111.989 10.2176C110.576 10.2176 108.682 10.4102 106.306 10.7955C103.93 11.1166 101.778 11.8231 99.8508 12.9149C97.9893 14.0067 97.0586 15.7407 97.0586 18.1169C97.0586 20.2362 98.1481 21.9702 100.333 23.3189C102.517 24.6676 105.501 25.7915 109.295 26.6905C113.083 27.5897 117.48 28.3603 122.489 29.0026C127.499 29.5805 132.831 30.1586 138.481 30.7366C144.131 31.3788 149.946 32.0852 155.919 32.8559C161.892 33.6266 167.701 34.6541 173.356 35.9386C180.999 37.6083 187.93 39.8882 194.161 42.7783C200.457 45.6683 205.466 49.4253 209.189 54.0492C212.918 58.6089 214.779 64.357 214.779 71.2931C214.779 76.8802 212.885 82.0183 209.096 86.7064C205.368 91.3946 200.134 95.4405 193.389 98.8442C186.649 102.313 178.65 105.009 169.403 106.937C160.156 108.863 150.039 109.826 139.062 109.826C130.067 109.826 121.175 109.602 112.377 109.152C103.639 108.702 95.0986 108.189 86.7495 107.611C78.4003 107.032 70.2756 106.519 62.3754 106.069C54.4807 105.62 46.9308 105.395 39.7369 105.395C35.4993 105.395 30.9114 105.78 25.9621 106.551C21.0183 107.386 17.1311 108.831 14.3061 110.886ZM293.48 109.826C283.396 109.826 274.242 108.799 266.024 106.744C257.8 104.753 251.253 101.831 246.369 97.9775C241.557 94.1238 239.148 89.532 239.148 84.2017C239.148 78.55 240.878 73.8619 244.349 70.1368C247.814 66.4122 252.408 63.458 258.123 61.2741C263.839 59.1548 270.36 57.6776 277.68 56.8427C285.065 55.9438 292.643 55.4943 300.411 55.4943C309.724 55.4943 318.686 55.6229 327.293 55.8797C335.899 56.0724 343.668 56.3615 350.605 56.7464C357.602 57.1318 363.257 57.5813 367.56 58.0954V37.1909C367.56 27.0438 364.637 19.8509 358.79 15.6122C355.839 13.4929 352.017 11.9516 347.331 10.9882C342.705 10.0248 337.246 9.54322 330.95 9.54322C321.577 9.54322 312.779 9.8001 304.556 10.3139C316.825 10.3139 326.68 12.0158 334.131 15.4196C341.582 18.7591 345.305 23.2225 345.305 28.8099C345.305 33.0485 343.312 36.6129 339.332 39.5029C335.352 42.3929 329.987 44.5765 323.247 46.0536C316.502 47.4665 308.985 48.1729 300.701 48.1729C294.986 48.1729 289.527 47.627 284.326 46.5353C279.191 45.4435 274.63 43.9343 270.645 42.0076C266.664 40.1451 263.489 37.9294 261.107 35.3606C258.797 32.7274 257.642 29.9017 257.642 26.8832C257.642 22.195 260.308 18.149 265.635 14.7452C270.968 11.3414 277.778 8.57986 286.062 6.46054C294.088 4.40541 302.793 2.86408 312.166 1.83652C321.61 0.808966 331.372 0.295186 341.451 0.295186C354.941 0.295186 368.234 0.519964 381.335 0.969521C394.502 1.41908 406.99 2.9283 418.805 5.49719C429.788 7.87344 438.75 11.7589 445.687 17.1535C452.623 22.484 456.089 29.8374 456.089 39.2139V62.2377C456.089 68.2102 456.472 73.027 457.244 76.6875C458.082 80.3485 459.204 83.2064 460.617 85.2611C462.029 87.2523 463.699 88.6008 465.626 89.3076C467.553 90.0138 469.606 90.3669 471.791 90.3669C475.837 90.3669 479.368 88.7294 482.39 85.4538C485.407 82.1787 487.044 77.426 487.301 71.1967H498.185C498.185 80.4449 496.099 87.5731 491.927 92.5826C487.75 97.5921 482.839 101.22 477.184 103.468C470.378 106.23 462.96 107.964 454.934 108.671C446.968 109.441 438.427 109.826 429.306 109.826C414.732 109.826 402.496 108.96 392.602 107.225C382.781 105.491 375.811 101.317 371.699 94.7019C369.006 96.5645 365.568 98.3947 361.396 100.193C357.284 101.927 352.143 103.532 345.979 105.009C339.748 106.423 332.33 107.579 323.729 108.478C315.122 109.377 305.038 109.826 293.48 109.826ZM340.394 91.8118C344.117 91.8118 348.355 91.5873 353.107 91.1378C357.925 90.6883 363.06 89.3393 368.524 87.0919C367.878 84.5871 367.56 81.4402 367.56 77.651V67.3435C364.796 67.2149 362.004 67.1508 359.178 67.1508C356.354 67.0862 353.622 67.0544 350.988 67.0544C346.625 67.0544 342.77 67.2149 339.431 67.5357C336.151 67.8571 333.392 68.467 331.142 69.3665C326.647 71.2931 324.402 74.6645 324.402 79.4813C324.402 82.0501 325.557 84.7475 327.868 87.5731C330.244 90.3992 334.421 91.8118 340.394 91.8118ZM553.574 105.491C551.39 100.674 548.756 94.6056 545.674 87.284C542.592 79.9631 539.093 71.903 535.173 63.1049C531.576 55.0771 527.919 47.627 524.191 40.7552C520.534 33.8835 517.095 28.6815 513.887 25.1492C511.38 22.4519 508.363 20.2683 504.832 18.5985C501.295 16.8645 497.764 15.6122 494.232 14.8415C490.701 14.0709 487.619 13.6856 484.985 13.6856V4.63019H626.593V13.6856C622.037 13.6856 618.408 14.392 615.709 15.8049C613.075 17.1535 611.761 18.9839 611.761 21.2959C611.761 23.0941 612.467 26.4979 613.88 31.5072C615.292 36.4523 617.252 42.5535 619.754 49.8106C622.13 56.811 624.83 64.0038 627.846 71.3894C630.868 78.7104 633.885 85.422 636.902 91.5232C638.96 87.4127 641.172 82.2751 643.548 76.1099C645.99 69.88 648.399 63.2653 650.775 56.2651C653.025 49.5858 654.919 43.2599 656.458 37.2872C658.062 31.2503 658.867 26.7548 658.867 23.8006C658.867 19.4334 657.487 16.6719 654.722 15.5159C652.029 14.2957 647.725 13.6856 641.818 13.6856V4.63019H771.671V13.6856C765.829 13.6856 761.493 14.5204 758.668 16.1902C755.777 17.7957 754.332 19.7867 754.332 22.1629C754.332 24.0253 755.071 27.5575 756.549 32.7596C758.088 37.8974 760.048 43.8058 762.424 50.4849C764.8 57.1641 767.598 64.3247 770.806 71.967C774.02 79.5453 777.102 86.1924 780.053 91.9081C781.723 88.6971 783.907 83.7199 786.606 76.9765C789.366 70.1691 792.13 62.7194 794.89 54.6273C801.12 36.7093 804.235 26.0162 804.235 22.5482C804.235 20.1078 803.014 18.0205 800.573 16.2866C798.197 14.5526 793.636 13.6856 786.896 13.6856V4.63019H852.688V13.6856C844.919 13.6856 838.338 14.7452 832.94 16.8645C827.613 18.9197 823.627 22.195 820.994 26.6905C818.815 30.4155 816.149 35.778 813.001 42.7783C809.918 49.7785 806.677 57.4849 803.272 65.8981C796.527 82.9173 791.517 96.115 788.243 105.491H696.726C695.379 102.28 693.676 98.0093 691.623 92.679C689.63 87.3487 687.478 81.6646 685.168 75.6281C682.918 69.9123 680.476 64.0356 677.843 57.999C675.209 51.8978 672.833 46.9848 670.714 43.2599C668.727 46.9206 666.477 51.5446 663.975 57.1318C661.467 62.6548 658.933 68.6597 656.365 75.1463C653.989 81.1834 651.771 86.9309 649.713 92.3899C647.66 97.7848 646.056 102.152 644.9 105.491H553.574Z" fill="white"/>
</g>
<defs>
<clipPath id="clip0_77_2">
<rect width="853" height="111" fill="white"/>
</clipPath>
</defs>
</svg>
