<svg width="354" height="25" viewBox="0 0 354 25" fill="none" xmlns="http://www.w3.org/2000/svg">
<path d="M2.93746 24.9432C2.77856 24.5964 2.62687 24.1052 2.4824 23.4696C2.35239 22.8195 2.23682 22.1333 2.13569 21.411C2.03457 20.6742 1.95511 19.988 1.89733 19.3524C1.85399 18.7023 1.83232 18.2039 1.83232 17.8572H4.49766C4.88772 18.5073 5.6317 19.0996 6.72962 19.6341C7.82754 20.1687 9.20717 20.6237 10.8685 20.9993C14.2779 21.7794 18.5034 22.1694 23.5451 22.1694C24.9609 22.1694 26.0877 21.9816 26.9255 21.606C27.7491 21.2305 28.1608 20.7609 28.1608 20.1975C28.1608 19.7063 27.9007 19.3163 27.3806 19.0274C26.875 18.724 26.1816 18.4784 25.3004 18.2906C24.1302 18.045 22.7217 17.8716 21.0748 17.7705C19.4279 17.6694 17.6727 17.5539 15.8091 17.4238C13.96 17.2938 12.1398 17.0772 10.3484 16.7737C8.58597 16.4704 6.96798 16.037 5.49446 15.4736C4.02094 14.9102 2.84356 14.1301 1.96234 13.1333C1.09556 12.1365 0.66217 10.8508 0.66217 9.27611C0.66217 7.64368 1.13168 6.24961 2.07069 5.09391C3.02414 3.92376 4.33876 2.96307 6.01453 2.21186C7.64696 1.48955 9.54665 0.955039 11.7136 0.608328C13.8806 0.247171 16.2136 0.0665913 18.7128 0.0665913C20.6487 0.0665913 22.5917 0.124376 24.5419 0.239947C26.5066 0.341071 28.3846 0.456641 30.176 0.586658C31.9818 0.716676 33.6142 0.839469 35.0733 0.955039C36.5468 1.05616 37.7025 1.10673 38.5404 1.10673C39.5372 1.10673 40.6206 1.03449 41.7908 0.890032C42.9754 0.731121 43.8928 0.449418 44.5428 0.0449219C44.7595 0.507204 44.9473 1.16451 45.1062 2.01684C45.2796 2.86918 45.4096 3.72151 45.4963 4.57383C45.5975 5.42617 45.6479 6.09792 45.6479 6.58911H43.0477C42.7587 6.11237 42.087 5.61397 41.0324 5.09391C39.9923 4.57383 38.6632 4.11156 37.0452 3.70706C35.4272 3.28812 33.5781 2.94863 31.4978 2.6886C29.4319 2.42856 27.2361 2.29855 24.9103 2.29855C24.5925 2.29855 24.1663 2.34189 23.6318 2.42856C23.0973 2.50079 22.6133 2.65971 22.18 2.90529C21.761 3.15088 21.5515 3.54093 21.5515 4.07545C21.5515 4.55217 21.7971 4.94222 22.2883 5.2456C22.7795 5.54897 23.4513 5.80178 24.3036 6.00402C25.1558 6.20627 26.1455 6.37962 27.2723 6.52409C28.3991 6.65411 29.5981 6.78413 30.8694 6.91414C32.1407 7.0586 33.4481 7.21752 34.7915 7.39087C36.1351 7.56423 37.4425 7.79536 38.7137 8.08429C40.4328 8.45989 41.993 8.97274 43.3944 9.62283C44.8101 10.2729 45.9369 11.118 46.7748 12.1581C47.6127 13.1838 48.0316 14.4768 48.0316 16.037C48.0316 17.2938 47.6055 18.4496 46.7531 19.5041C45.9152 20.5587 44.7378 21.4688 43.221 22.2344C41.7041 23.0146 39.9056 23.6212 37.8253 24.0547C35.745 24.4881 33.4697 24.7047 30.9994 24.7047C28.9769 24.7047 26.9761 24.6543 24.997 24.553C23.0323 24.4519 21.1109 24.3364 19.2329 24.2063C17.3548 24.0763 15.5274 23.9608 13.7505 23.8597C11.9736 23.7586 10.2762 23.7079 8.6582 23.7079C7.70474 23.7079 6.67183 23.7946 5.55947 23.968C4.44711 24.1559 3.5731 24.4809 2.93746 24.9432ZM80.8167 24.7047C76.6706 24.7047 72.9073 24.5025 69.5269 24.098C66.1609 23.6935 63.286 23.029 60.9024 22.1044C58.5188 21.1799 56.6769 19.9736 55.3766 18.4857C54.0765 16.9832 53.4264 15.1341 53.4264 12.9382C53.4264 10.7858 54.1055 8.89328 55.4633 7.26085C56.8213 5.61397 58.7066 4.26324 61.1191 3.20866C62.7515 2.48635 64.5573 1.90127 66.5365 1.45344C68.5156 0.991155 70.6609 0.644444 72.9723 0.413302C75.2837 0.182162 77.7106 0.0665913 80.2532 0.0665913C83.6481 0.0665913 86.7252 0.304955 89.4844 0.781684C92.2436 1.25842 94.6057 1.99518 96.5704 2.99196C98.5206 4.00321 100.03 5.29615 101.099 6.8708C102.168 8.44545 102.703 10.3307 102.703 12.5265H74.4458C74.6481 15.8492 75.6015 18.1895 77.3062 19.5475C79.0109 20.9054 81.669 21.5844 85.2806 21.5844C87.0286 21.5844 88.7477 21.4615 90.4378 21.216C92.1281 20.956 93.6738 20.5804 95.0752 20.0892C96.4909 19.6125 97.6393 18.9985 98.5206 18.2472C99.4163 17.496 99.8641 16.6438 99.8641 15.6902H102.703C102.703 17.2794 102.074 18.6518 100.818 19.8075C99.5608 20.9487 97.9211 21.8733 95.8986 22.5811C93.8616 23.289 91.543 23.8163 88.9426 24.163C86.3424 24.5242 83.6337 24.7047 80.8167 24.7047ZM74.4242 10.0995H83.2003C83.2003 8.78494 83.0919 7.66535 82.8753 6.74078C82.6729 5.80178 82.3986 5.03613 82.0518 4.44382C81.6907 3.85152 81.2644 3.41813 80.7733 3.14365C80.2822 2.85473 79.7548 2.71026 79.1914 2.71026C78.5702 2.71026 77.978 2.85473 77.4146 3.14365C76.8656 3.41813 76.3816 3.85152 75.9627 4.44382C75.5294 5.05057 75.1754 5.82344 74.9009 6.76246C74.6408 7.68702 74.4819 8.79939 74.4242 10.0995ZM135.142 24.7047C130.995 24.7047 127.232 24.5025 123.851 24.098C120.485 23.6935 117.611 23.029 115.227 22.1044C112.843 21.1799 111.001 19.9736 109.701 18.4857C108.401 16.9832 107.751 15.1341 107.751 12.9382C107.751 10.7858 108.43 8.89328 109.788 7.26085C111.146 5.61397 113.031 4.26324 115.444 3.20866C117.076 2.48635 118.882 1.90127 120.861 1.45344C122.84 0.991155 124.985 0.644444 127.297 0.413302C129.608 0.182162 132.036 0.0665913 134.578 0.0665913C137.973 0.0665913 141.049 0.304955 143.809 0.781684C146.568 1.25842 148.93 1.99518 150.895 2.99196C152.845 4.00321 154.355 5.29615 155.424 6.8708C156.493 8.44545 157.027 10.3307 157.027 12.5265H128.77C128.973 15.8492 129.926 18.1895 131.631 19.5475C133.335 20.9054 135.994 21.5844 139.605 21.5844C141.353 21.5844 143.073 21.4615 144.762 21.216C146.452 20.956 147.999 20.5804 149.399 20.0892C150.815 19.6125 151.964 18.9985 152.845 18.2472C153.74 17.496 154.188 16.6438 154.188 15.6902H157.027C157.027 17.2794 156.399 18.6518 155.142 19.8075C153.886 20.9487 152.245 21.8733 150.223 22.5811C148.186 23.289 145.867 23.8163 143.267 24.163C140.666 24.5242 137.958 24.7047 135.142 24.7047ZM128.749 10.0995H137.525C137.525 8.78494 137.416 7.66535 137.2 6.74078C136.998 5.80178 136.723 5.03613 136.377 4.44382C136.015 3.85152 135.589 3.41813 135.097 3.14365C134.607 2.85473 134.079 2.71026 133.516 2.71026C132.894 2.71026 132.303 2.85473 131.739 3.14365C131.19 3.41813 130.706 3.85152 130.287 4.44382C129.853 5.05057 129.5 5.82344 129.225 6.76246C128.966 7.68702 128.807 8.79939 128.749 10.0995ZM164.697 24.9432C164.538 24.5964 164.387 24.1052 164.243 23.4696C164.112 22.8195 163.996 22.1333 163.895 21.411C163.794 20.6742 163.716 19.988 163.658 19.3524C163.613 18.7023 163.592 18.2039 163.592 17.8572H166.257C166.648 18.5073 167.392 19.0996 168.489 19.6341C169.587 20.1687 170.967 20.6237 172.628 20.9993C176.038 21.7794 180.264 22.1694 185.305 22.1694C186.72 22.1694 187.847 21.9816 188.686 21.606C189.509 21.2305 189.921 20.7609 189.921 20.1975C189.921 19.7063 189.66 19.3163 189.14 19.0274C188.636 18.724 187.941 18.4784 187.06 18.2906C185.89 18.045 184.482 17.8716 182.835 17.7705C181.188 17.6694 179.432 17.5539 177.569 17.4238C175.72 17.2938 173.9 17.0772 172.108 16.7737C170.346 16.4704 168.728 16.037 167.255 15.4736C165.781 14.9102 164.604 14.1301 163.722 13.1333C162.856 12.1365 162.422 10.8508 162.422 9.27611C162.422 7.64368 162.892 6.24961 163.83 5.09391C164.785 3.92376 166.099 2.96307 167.775 2.21186C169.406 1.48955 171.307 0.955039 173.473 0.608328C175.64 0.247171 177.973 0.0665913 180.473 0.0665913C182.409 0.0665913 184.351 0.124376 186.302 0.239947C188.266 0.341071 190.144 0.456641 191.936 0.586658C193.741 0.716676 195.374 0.839469 196.834 0.955039C198.307 1.05616 199.462 1.10673 200.301 1.10673C201.297 1.10673 202.381 1.03449 203.551 0.890032C204.735 0.731121 205.653 0.449418 206.303 0.0449219C206.52 0.507204 206.707 1.16451 206.866 2.01684C207.039 2.86918 207.17 3.72151 207.256 4.57383C207.357 5.42617 207.408 6.09792 207.408 6.58911H204.808C204.519 6.11237 203.847 5.61397 202.792 5.09391C201.753 4.57383 200.424 4.11156 198.805 3.70706C197.187 3.28812 195.337 2.94863 193.257 2.6886C191.192 2.42856 188.996 2.29855 186.67 2.29855C186.352 2.29855 185.926 2.34189 185.392 2.42856C184.857 2.50079 184.373 2.65971 183.94 2.90529C183.521 3.15088 183.312 3.54093 183.312 4.07545C183.312 4.55217 183.557 4.94222 184.048 5.2456C184.539 5.54897 185.211 5.80178 186.064 6.00402C186.916 6.20627 187.905 6.37962 189.032 6.52409C190.159 6.65411 191.358 6.78413 192.629 6.91414C193.9 7.0586 195.208 7.21752 196.552 7.39087C197.895 7.56423 199.202 7.79536 200.474 8.08429C202.193 8.45989 203.753 8.97274 205.154 9.62283C206.57 10.2729 207.697 11.118 208.535 12.1581C209.373 13.1838 209.792 14.4768 209.792 16.037C209.792 17.2938 209.366 18.4496 208.514 19.5041C207.675 20.5587 206.498 21.4688 204.98 22.2344C203.464 23.0146 201.665 23.6212 199.585 24.0547C197.505 24.4881 195.229 24.7047 192.76 24.7047C190.736 24.7047 188.736 24.6543 186.757 24.553C184.792 24.4519 182.871 24.3364 180.993 24.2063C179.115 24.0763 177.287 23.9608 175.51 23.8597C173.734 23.7586 172.036 23.7079 170.418 23.7079C169.464 23.7079 168.432 23.7946 167.319 23.968C166.207 24.1559 165.333 24.4809 164.697 24.9432ZM227.495 24.7047C225.227 24.7047 223.168 24.4736 221.319 24.0114C219.469 23.5635 217.996 22.9062 216.898 22.0395C215.815 21.1726 215.273 20.1397 215.273 18.9407C215.273 17.6694 215.663 16.6148 216.443 15.7769C217.223 14.9391 218.256 14.2746 219.542 13.7833C220.828 13.3066 222.294 12.9743 223.941 12.7865C225.602 12.5843 227.307 12.4832 229.054 12.4832C231.149 12.4832 233.165 12.5121 235.101 12.5699C237.037 12.6132 238.785 12.6783 240.345 12.7648C241.919 12.8515 243.191 12.9527 244.159 13.0683V8.36599C244.159 6.08348 243.501 4.4655 242.186 3.51204C241.522 3.03531 240.663 2.6886 239.608 2.4719C238.568 2.2552 237.34 2.14686 235.924 2.14686C233.815 2.14686 231.836 2.20465 229.986 2.32021C232.746 2.32021 234.963 2.70305 236.639 3.4687C238.315 4.21991 239.153 5.22392 239.153 6.48076C239.153 7.4342 238.704 8.23598 237.809 8.88606C236.914 9.53615 235.707 10.0273 234.191 10.3596C232.674 10.6774 230.983 10.8363 229.119 10.8363C227.834 10.8363 226.606 10.7135 225.436 10.4679C224.281 10.2223 223.255 9.88286 222.358 9.44946C221.463 9.03052 220.749 8.53212 220.213 7.95428C219.693 7.36198 219.434 6.72633 219.434 6.04736C219.434 4.99279 220.033 4.08266 221.232 3.31701C222.431 2.55136 223.963 1.93016 225.826 1.45344C227.632 0.991155 229.59 0.644444 231.698 0.413302C233.823 0.182162 236.019 0.0665913 238.286 0.0665913C241.32 0.0665913 244.31 0.117153 247.257 0.218278C250.219 0.319402 253.028 0.65889 255.686 1.23674C258.156 1.77126 260.172 2.64526 261.733 3.85875C263.293 5.05779 264.073 6.71189 264.073 8.82105V14.0001C264.073 15.3435 264.159 16.427 264.333 17.2504C264.521 18.074 264.773 18.7168 265.091 19.179C265.409 19.6269 265.785 19.9302 266.218 20.0892C266.652 20.2481 267.113 20.3275 267.605 20.3275C268.515 20.3275 269.309 19.9592 269.989 19.2224C270.668 18.4857 271.036 17.4166 271.094 16.0153H273.542C273.542 18.0956 273.073 19.6991 272.134 20.8259C271.195 21.9528 270.09 22.7689 268.818 23.2746C267.287 23.8958 265.618 24.2858 263.813 24.4448C262.021 24.618 260.1 24.7047 258.048 24.7047C254.77 24.7047 252.017 24.5098 249.792 24.1196C247.583 23.7296 246.015 22.7906 245.09 21.3027C244.484 21.7216 243.711 22.1333 242.772 22.5379C241.847 22.9279 240.691 23.289 239.304 23.6212C237.903 23.9391 236.234 24.1992 234.299 24.4014C232.363 24.6036 230.095 24.7047 227.495 24.7047ZM238.048 20.6525C238.886 20.6525 239.839 20.602 240.908 20.5009C241.991 20.3998 243.147 20.0964 244.376 19.5908C244.23 19.0274 244.159 18.3195 244.159 17.4672V15.1486C243.537 15.1196 242.909 15.1052 242.273 15.1052C241.638 15.0907 241.023 15.0836 240.431 15.0836C239.45 15.0836 238.583 15.1196 237.831 15.1918C237.094 15.2641 236.473 15.4013 235.967 15.6036C234.956 16.037 234.451 16.7954 234.451 17.8789C234.451 18.4567 234.711 19.0635 235.23 19.6991C235.765 20.3348 236.704 20.6525 238.048 20.6525ZM286.001 23.7296C285.51 22.6461 284.918 21.281 284.224 19.6341C283.531 17.9873 282.744 16.1742 281.862 14.1951C281.053 12.3894 280.23 10.7135 279.392 9.16776C278.569 7.62201 277.796 6.45186 277.074 5.65731C276.51 5.05057 275.831 4.55939 275.037 4.18378C274.241 3.79374 273.447 3.51204 272.653 3.33867C271.858 3.16532 271.165 3.07865 270.573 3.07865V1.04172H302.426V3.07865C301.402 3.07865 300.585 3.23755 299.978 3.55537C299.386 3.85875 299.09 4.27047 299.09 4.79053C299.09 5.19503 299.249 5.96068 299.567 7.08749C299.884 8.19986 300.325 9.57226 300.888 11.2047C301.422 12.7794 302.03 14.3974 302.708 16.0587C303.388 17.7055 304.067 19.2152 304.745 20.5876C305.208 19.663 305.706 18.5073 306.24 17.1205C306.789 15.7192 307.331 14.2312 307.866 12.6566C308.372 11.1541 308.798 9.73118 309.144 8.38767C309.505 7.02971 309.686 6.01847 309.686 5.35395C309.686 4.37159 309.376 3.7504 308.754 3.49036C308.148 3.21589 307.18 3.07865 305.851 3.07865V1.04172H335.06V3.07865C333.746 3.07865 332.771 3.26645 332.135 3.64205C331.485 4.00321 331.16 4.45105 331.16 4.98556C331.16 5.4045 331.326 6.19904 331.659 7.3692C332.005 8.52491 332.446 9.85397 332.98 11.3564C333.515 12.8588 334.144 14.4695 334.866 16.1886C335.589 17.8933 336.282 19.3885 336.946 20.6742C337.321 19.9519 337.813 18.8323 338.42 17.3155C339.041 15.7842 339.663 14.1084 340.283 12.2882C341.685 8.25765 342.385 5.85233 342.385 5.07223C342.385 4.52328 342.111 4.05377 341.562 3.66372C341.027 3.27367 340.001 3.07865 338.485 3.07865V1.04172H353.285V3.07865C351.537 3.07865 350.057 3.31701 348.842 3.79374C347.644 4.25603 346.748 4.99279 346.155 6.00402C345.665 6.84191 345.065 8.04818 344.357 9.62283C343.664 11.1975 342.935 12.931 342.169 14.8235C340.652 18.6518 339.525 21.6205 338.788 23.7296H318.202C317.899 23.0073 317.516 22.0466 317.054 20.8476C316.606 19.6486 316.122 18.37 315.602 17.0121C315.096 15.7264 314.547 14.4045 313.954 13.0466C313.362 11.6742 312.828 10.5691 312.351 9.73118C311.904 10.5546 311.398 11.5947 310.835 12.8515C310.271 14.0939 309.701 15.4446 309.123 16.9038C308.589 18.2618 308.09 19.5546 307.627 20.7826C307.165 21.9961 306.804 22.9784 306.544 23.7296H286.001Z" fill="#1C1C1D"/>
</svg>
