<svg xmlns="http://www.w3.org/2000/svg" version="1.1" xmlns:xlink="http://www.w3.org/1999/xlink" xmlns:svgjs="http://svgjs.dev/svgjs" width="92" height="95"><svg width="92" height="95" viewBox="0 0 92 95" fill="none" xmlns="http://www.w3.org/2000/svg">
<path d="M47.4745 18.3958C45.9099 14.2556 41.4328 12.1133 37.5574 13.3409C33.3209 14.6889 30.8898 19.7437 32.7673 24.269L37.4852 36.0637C30.6491 25.7855 23.8129 15.5313 16.9768 5.27716C14.8586 1.42584 9.90003 0.270454 6.50605 2.50904C3.32871 4.6032 2.31773 9.12849 4.50817 12.5947L27.3754 52.2152C22.2965 49.9526 17.2175 47.6659 12.1386 45.4032C8.23914 43.8627 3.81012 45.4754 1.83631 49.0379C-0.233778 52.7688 0.969757 57.6071 4.65259 59.9901C16.8565 67.5243 29.0363 75.0825 41.2402 82.6166C43.3584 83.9165 45.0434 85.794 46.1025 88.0326L46.5599 89.0195L46.608 89.0676C47.4505 90.8248 48.991 92.1727 50.8926 92.7023C55.8993 94.1225 65.8646 95.7834 76.0225 90.5119C83.4844 86.6365 87.6725 80.7873 89.7667 77.0563C90.6573 75.4435 90.7777 73.5179 90.1277 71.8088C89.1649 69.2333 88.178 66.6577 87.1911 64.0821C86.2764 61.675 86.2764 58.955 87.4078 56.6202C88.2262 54.8871 89.0205 52.6485 89.3575 49.9526C89.9833 44.7533 88.5391 40.7094 87.7688 38.9281L77.3223 11.1745C75.9744 7.78054 72.46 6.02337 69.5956 6.79364C66.1775 7.70833 63.8668 12.1614 65.648 16.2535C66.7071 19.0457 66.8756 19.4308 67.9347 22.223C66.322 18.2032 65.648 16.5904 64.0353 12.5706C61.6763 9.7784 58.0416 8.50265 54.6476 9.32106C50.6278 10.2839 47.643 13.9908 47.4745 18.3958ZM47.4745 18.3958C49.1113 22.5119 50.1705 25.1597 51.8314 29.2998C50.1945 25.1837 49.1354 22.5359 47.4745 18.3958Z" stroke="white" stroke-width="1.61274" stroke-linecap="round" stroke-linejoin="round"></path>
<path d="M45.3565 43.4779L55.9236 66.2003" stroke="white" stroke-width="1.61274" stroke-linecap="round" stroke-linejoin="round"></path>
<path d="M55.1047 38.9999L65.6477 61.7227" stroke="white" stroke-width="1.61274" stroke-linecap="round" stroke-linejoin="round"></path>
<path d="M64.686 34.5231L75.2531 57.2459" stroke="white" stroke-width="1.61274" stroke-linecap="round" stroke-linejoin="round"></path>
</svg><style>@media (prefers-color-scheme: light) { :root { filter: contrast(1) brightness(0.1); } }
@media (prefers-color-scheme: dark) { :root { filter: contrast(1) brightness(1); } }
</style></svg>