<svg width="318" height="105" viewBox="0 0 318 105" fill="none" xmlns="http://www.w3.org/2000/svg">
<g clip-path="url(#clip0_103_4)">
<mask id="mask0_103_4" style="mask-type:luminance" maskUnits="userSpaceOnUse" x="0" y="0" width="318" height="105">
<path d="M317.296 0H0V104.421H317.296V0Z" fill="white"/>
</mask>
<g mask="url(#mask0_103_4)">
<path d="M106.037 91.1749H112.508V92.3758H107.364V104.421H106.037V91.1749Z" fill="white"/>
<path d="M126.399 91.1749H127.889L133.59 104.421H132.137L130.217 99.9588H124.05L122.115 104.421H120.714L126.399 91.1749ZM129.698 98.758L127.156 92.6797L124.554 98.758H129.698Z" fill="white"/>
<path d="M143.033 91.1749H146.132C147.674 91.1749 148.815 91.4566 149.556 92.02C150.298 92.5833 150.668 93.4506 150.668 94.6218C150.668 95.2889 150.55 95.8449 150.313 96.2822C150.075 96.7195 149.705 97.0828 149.201 97.3644C149.979 97.6906 150.542 98.1057 150.898 98.6172C151.254 99.1286 151.424 99.8032 151.424 100.626C151.424 101.931 151.017 102.887 150.194 103.502C149.379 104.117 148.081 104.429 146.31 104.429H143.026V91.1823L143.033 91.1749ZM146.888 96.8752C147.726 96.8752 148.341 96.6973 148.734 96.3341C149.127 95.9709 149.327 95.4075 149.327 94.6292C149.327 94.2141 149.267 93.8583 149.149 93.5692C149.03 93.2801 148.837 93.0503 148.563 92.8724C148.289 92.6945 147.948 92.5685 147.518 92.487C147.088 92.4128 146.569 92.3684 145.961 92.3684H144.368V96.8678H146.895L146.888 96.8752ZM146.169 103.22C147.54 103.22 148.541 103.02 149.156 102.627C149.771 102.235 150.083 101.59 150.083 100.693C150.083 99.8699 149.801 99.225 149.23 98.7654C148.66 98.3058 147.874 98.076 146.858 98.076H144.368V103.22H146.176H146.169Z" fill="white"/>
<path d="M165.731 91.1749H167.221L172.921 104.421H171.468L169.548 99.9588H163.381L161.446 104.421H160.045L165.731 91.1749ZM169.029 98.758L166.487 92.6797L163.885 98.758H169.029Z" fill="white"/>
<path d="M182.365 91.1749H183.691V97.0012H190.555V91.1749H191.882V104.421H190.555V98.2021H183.691V104.421H182.365V91.1749Z" fill="white"/>
<path d="M202.49 91.1749H203.817V96.801H206.359C207.256 96.801 207.975 96.8604 208.509 96.979C209.05 97.0976 209.517 97.3051 209.925 97.5868C210.34 97.8981 210.666 98.3058 210.903 98.8173C211.133 99.3287 211.251 99.8995 211.251 100.544C211.251 101.36 211.111 102.02 210.836 102.524C210.562 103.035 210.191 103.428 209.717 103.71C209.243 103.991 208.701 104.177 208.086 104.273C207.471 104.369 206.826 104.414 206.144 104.414H202.49V91.1675V91.1749ZM205.699 103.22C206.203 103.22 206.7 103.206 207.204 103.176C207.708 103.146 208.16 103.05 208.561 102.887C208.961 102.724 209.287 102.464 209.539 102.101C209.791 101.738 209.917 101.226 209.917 100.567C209.917 99.9959 209.813 99.5363 209.613 99.1953C209.413 98.8543 209.139 98.5949 208.798 98.4244C208.457 98.2539 208.071 98.1353 207.634 98.0834C207.197 98.0315 206.745 98.0019 206.278 98.0019H203.824V103.22H205.707H205.699Z" fill="white"/>
<path d="M226.18 68.8556V69.5672H210.577V68.8556H211.192C214.15 68.8556 215.373 68.8556 215.988 66.6244L234.749 0.333618H243.111L262.087 66.2167C262.798 68.3515 263.718 68.8556 266.883 68.8556H267.906V69.5672H239.137V68.8556H241.072C245.868 68.8556 247.291 68.3515 246.476 65.3049L242.458 49.9979L241.176 45.0982H222.919L216.9 66.0091C216.084 69.0557 218.019 68.8481 222.607 68.8481H226.18V68.8556ZM240.664 43.1709L232.303 11.6007L223.43 43.1709H240.664Z" fill="white"/>
<path d="M178.243 1.1416H205.884V1.85321H203.846C200.992 1.85321 199.665 1.74943 199.665 4.29195V66.4243C199.665 68.9594 200.992 68.863 203.846 68.863H205.884V69.5746H173.751V68.863H180.281C182.32 68.863 184.566 68.9668 184.566 66.4243V37.5967C181.504 39.524 178.139 40.9472 171.409 40.9472C157.124 40.9472 154.782 32.6229 154.782 22.8753V4.29195C154.782 1.75685 153.559 1.85321 150.698 1.85321H148.556V1.1416H176.508V1.85321H173.855C171.92 1.85321 169.978 1.85321 169.978 4.29195V22.8679C169.978 29.769 169.978 38.3973 178.139 38.3973C179.77 38.3973 182.32 38.0934 184.566 36.5664V4.29195C184.566 1.85321 182.527 1.85321 180.585 1.85321H178.236V1.1416H178.243Z" fill="white"/>
<path d="M317.296 39.6574C279.299 47.8705 237.699 55.928 199.45 43.5934C190.763 40.5913 182.787 36.9444 174.203 34.1053C161.92 30.1989 149.304 27.219 136.391 26.7669C132.507 26.6557 128.045 26.4333 124.183 26.7446C112.115 27.5081 100.233 32.141 91.6564 40.8508C83.9918 48.6488 78.803 58.8708 76.7201 69.5968L76.4161 69.5597C76.7423 66.7874 77.3724 64.0744 78.1433 61.3911C79.7073 56.0244 81.983 50.8504 84.9851 46.1137C94.021 31.6962 109.135 23.7129 125.888 22.2526C129.112 21.882 133.189 21.8894 136.451 21.7782C150.601 21.4965 164.722 24.0613 178.317 27.7602C191.474 31.5628 203.965 37.0037 217.633 38.249C239.019 40.5469 260.76 37.5077 281.782 32.986C292.412 30.6585 302.952 27.8491 313.552 24.8322L317.303 39.6648L317.296 39.6574Z" fill="#D19760"/>
<path d="M106.541 43.1709L100.01 66.0091C99.1951 69.0557 101.13 68.8481 105.718 68.8481H109.291V69.5598H93.6875V68.8481H94.3027C97.2604 68.8481 98.4834 68.8482 99.0987 66.617L117.86 0.333618H126.221L145.198 66.2167C145.909 68.3515 146.828 68.8556 149.994 68.8556H151.016V69.5672H122.256V68.8556H124.19C128.986 68.8556 130.409 68.3515 129.594 65.3049L123.783 43.1709M106.029 45.0982H124.287L123.775 43.1709L115.414 11.6007L106.541 43.1709" fill="white"/>
<path d="M80.0189 57.0917L76.4831 69.5671H68.2182L49.0492 3.0614C48.3376 0.815385 47.3147 0.711608 44.0532 0.711608H43.3416V0H73.3329V0.711608H71.9022C66.8024 0.711608 65.1716 1.22308 65.987 4.28448L79.5519 56.0021" fill="#D19761"/>
<path d="M239.693 38.4788L242.896 50.6873" stroke="#F4ECD9" stroke-width="0.474406" stroke-miterlimit="10"/>
<mask id="mask1_103_4" style="mask-type:luminance" maskUnits="userSpaceOnUse" x="154" y="22" width="18" height="12">
<path d="M170.275 25.6624L170.06 25.403C164.552 24.1577 159.563 23.2385 154.819 22.5936L154.508 22.8679C154.508 25.2918 154.656 27.3377 154.96 29.1167L155.175 29.3391C159.927 30.3101 165.063 31.6296 170.882 33.3641L171.223 33.0157C170.467 30.6956 170.319 27.8714 170.275 25.6699V25.6624Z" fill="white"/>
</mask>
<g mask="url(#mask1_103_4)">
<path d="M317.295 39.6574C279.298 47.8705 237.699 55.928 199.45 43.5934C190.762 40.5913 182.787 36.9444 174.203 34.1053C161.92 30.1989 149.304 27.219 136.391 26.7669C132.507 26.6557 128.045 26.4333 124.183 26.7446C112.115 27.5081 100.233 32.141 91.6562 40.8508C83.9916 48.6488 78.8027 58.8708 76.7198 69.5968L76.4159 69.5597C76.742 66.7874 77.3721 64.0744 78.143 61.3911C79.7071 56.0244 81.9827 50.8504 84.9848 46.1137C94.0208 31.6962 109.135 23.7129 125.888 22.2526C129.112 21.882 133.189 21.8894 136.45 21.7782C150.601 21.4965 164.722 24.0613 178.317 27.7602C191.474 31.5628 203.964 37.0037 217.633 38.249C239.018 40.5469 260.76 37.5077 281.782 32.986C292.411 30.6585 302.952 27.8491 313.552 24.8322L317.303 39.6648L317.295 39.6574Z" fill="#D19760"/>
<path d="M178.243 1.1416H205.884V1.85321H203.846C200.992 1.85321 199.665 1.74943 199.665 4.29195V66.4243C199.665 68.9594 200.992 68.863 203.846 68.863H205.884V69.5746H173.751V68.863H180.281C182.32 68.863 184.566 68.9668 184.566 66.4243V37.5967C181.504 39.524 178.139 40.9472 171.408 40.9472C157.124 40.9472 154.782 32.6229 154.782 22.8753V4.29195C154.782 1.75685 153.559 1.85321 150.698 1.85321H148.555V1.1416H176.508V1.85321H173.855C171.92 1.85321 169.978 1.85321 169.978 4.29195V22.8679C169.978 29.769 169.978 38.3973 178.139 38.3973C179.77 38.3973 182.32 38.0934 184.566 36.5664V4.29195C184.566 1.85321 182.527 1.85321 180.585 1.85321H178.235V1.1416H178.243Z" fill="white"/>
</g>
<mask id="mask2_103_4" style="mask-type:alpha" maskUnits="userSpaceOnUse" x="239" y="35" width="20" height="18">
<path d="M239.405 38.4269C239.308 39.0496 239.835 39.8724 240.005 40.4728C240.272 41.4142 240.465 42.4297 240.746 43.3711C241.006 44.2458 241.206 45.1205 241.428 46.0026C241.665 46.9514 242.11 47.9892 242.303 48.8713C242.429 49.4346 242.37 49.9683 242.607 50.5391C242.911 51.273 243.385 51.7103 244.193 51.9772C245.705 52.4738 247.255 51.866 248.767 51.6288C249.167 51.5695 251.584 51.2285 251.635 51.6436C252.466 51.5472 253.377 51.0135 254.156 50.717C255.119 50.3538 256.142 50.1092 257.091 49.7237C257.484 49.5607 258.433 49.2864 258.618 48.8565C258.952 48.093 258.581 46.7365 258.455 45.9359C258.255 44.5868 257.973 43.2081 257.506 41.9183C257.017 40.5618 256.409 39.3461 255.038 38.7309C255.038 38.7902 255.038 38.8569 255.053 38.9162C255.097 37.8784 254.356 36.0846 253.288 35.6621C252.807 35.4693 251.561 35.6769 251.072 35.6769C249.938 35.6769 248.997 35.6324 247.907 35.3878C247.907 35.4397 247.937 35.4842 247.974 35.5212C247.262 35.5879 246.543 35.5212 245.831 35.4693C245.253 35.4249 243.808 34.9727 243.296 35.2766C243.029 35.4323 242.918 36.218 242.636 36.4774C242.392 36.7072 242.199 36.7221 241.91 36.8703C241.087 37.3076 240.353 37.9303 239.531 38.3009C239.516 38.4418 239.486 38.6567 239.375 38.4344C239.279 39.057 239.486 38.6567 239.375 38.4344L239.405 38.4269Z" fill="white"/>
</mask>
<g mask="url(#mask2_103_4)">
<path d="M239.694 38.4788L242.896 50.6873" stroke="white" stroke-width="0.474406" stroke-miterlimit="10"/>
<path d="M317.296 39.6574C279.299 47.8705 237.7 55.928 199.451 43.5934C190.763 40.5913 182.787 36.9444 174.203 34.1053C161.921 30.1989 149.304 27.219 136.392 26.7669C132.508 26.6557 128.045 26.4333 124.183 26.7446C112.116 27.5081 100.233 32.141 91.6568 40.8508C83.9922 48.6488 78.8034 58.8708 76.7204 69.5968L76.4165 69.5597C76.7427 66.7874 77.3727 64.0744 78.1436 61.3911C79.7077 56.0244 81.9834 50.8504 84.9855 46.1137C94.0214 31.6962 109.136 23.7129 125.888 22.2526C129.113 21.882 133.19 21.8894 136.451 21.7782C150.602 21.4965 164.723 24.0613 178.317 27.7602C191.475 31.5628 203.965 37.0037 217.634 38.249C239.019 40.5469 260.76 37.5077 281.782 32.986C292.412 30.6585 302.953 27.8491 313.553 24.8322L317.303 39.6648L317.296 39.6574Z" fill="#D19760"/>
<path d="M226.18 68.8556V69.5672H210.577V68.8556H211.192C214.15 68.8556 215.373 68.8556 215.988 66.6244L234.749 0.333618H243.111L262.087 66.2167C262.799 68.3515 263.718 68.8556 266.883 68.8556H267.906V69.5672H239.138V68.8556H241.072C245.868 68.8556 247.291 68.3515 246.476 65.3049L242.458 49.9979L241.176 45.0982H222.919L216.9 66.0091C216.084 69.0557 218.019 68.8481 222.608 68.8481H226.18V68.8556ZM240.665 43.1709L232.303 11.6007L223.43 43.1709H240.665Z" fill="white"/>
</g>
<mask id="mask3_103_4" style="mask-type:luminance" maskUnits="userSpaceOnUse" x="108" y="24" width="5" height="7">
<path d="M111.233 24.3354C110.974 24.4244 110.366 24.6394 110.366 24.6394L109.729 25.3213L108.572 29.4057L109.884 30.651C110.032 30.5991 110.188 30.5546 110.344 30.5101L110.722 30.3915L111.389 29.6947L112.545 25.5808L111.241 24.3354H111.233Z" fill="white"/>
</mask>
<g mask="url(#mask3_103_4)">
<path d="M106.541 43.1709L100.01 66.0091C99.1951 69.0557 101.13 68.8481 105.718 68.8481H109.291V69.5598H93.6875V68.8481H94.3027C97.2604 68.8481 98.4834 68.8482 99.0987 66.617L117.86 0.333618H126.221L145.198 66.2167C145.909 68.3515 146.828 68.8556 149.994 68.8556H151.016V69.5672H122.256V68.8556H124.19C128.986 68.8556 130.409 68.3515 129.594 65.3049L123.783 43.1709M106.029 45.0982H124.287L123.775 43.1709L115.414 11.6007L106.541 43.1709" fill="#F4ECD9"/>
<path d="M317.295 39.6575C279.298 47.8706 237.699 55.9281 199.45 43.5936C190.762 40.5915 182.787 36.9445 174.203 34.1055C161.92 30.199 149.304 27.2192 136.391 26.767C132.507 26.6558 128.045 26.4334 124.183 26.7448C112.115 27.5083 100.233 32.1411 91.6562 40.8509C83.9916 48.649 78.8027 58.8709 76.7198 69.5969L76.4159 69.5599C76.742 66.7875 77.3721 64.0745 78.143 61.3912C79.7071 56.0245 81.9827 50.8505 84.9848 46.1138C94.0208 31.6964 109.135 23.713 125.888 22.2527C129.112 21.8821 133.189 21.8895 136.45 21.7783C150.601 21.4966 164.722 24.0614 178.317 27.7603C191.474 31.5629 203.964 37.0038 217.633 38.2491C239.018 40.547 260.76 37.5078 281.782 32.9862C292.411 30.6586 302.952 27.8492 313.552 24.8323L317.303 39.6649L317.295 39.6575Z" fill="#D19760"/>
</g>
<path d="M56.3061 68.8556C53.1409 68.8556 52.2292 68.3515 51.5101 66.2167L32.5413 0.333618H24.1799L5.40386 66.6244C4.78862 68.8556 3.56554 68.8556 0.60792 68.8556H-0.00732422V69.5672H9.30286C9.30286 69.5672 35.7139 56.6026 42.4964 56.2393C42.4964 56.2393 33.6532 69.3226 39.8279 69.5672H57.3142V68.8556H56.2913H56.3061ZM25.87 29.1686C25.87 29.1686 27.056 44.95 15.1959 58.8115C15.1959 58.8115 25.1361 38.0192 25.87 29.1686ZM18.3388 61.3318C28.2124 47.1589 28.7906 23.2904 28.7906 23.2904C38.3306 31.2886 39.2423 53.215 39.2423 53.215C24.8248 53.0964 18.3462 61.3318 18.3462 61.3318H18.3388Z" fill="white"/>
</g>
</g>
<defs>
<clipPath id="clip0_103_4">
<rect width="318" height="104.517" fill="white"/>
</clipPath>
</defs>
</svg>
