<svg width="701" height="111" viewBox="0 0 701 111" fill="none" xmlns="http://www.w3.org/2000/svg">
<g clip-path="url(#clip0_34_2)">
<path d="M10.1898 110.886C9.48336 109.344 8.80902 107.161 8.16676 104.336C7.58878 101.445 7.07502 98.3947 6.62542 95.1837C6.17588 91.9081 5.82265 88.8575 5.56576 86.0319C5.37311 83.1418 5.27677 80.9261 5.27677 79.3849H17.1258C18.8598 82.2751 22.1672 84.908 27.0481 87.284C31.929 89.6607 38.0623 91.6836 45.4478 93.3535C60.6045 96.8213 79.3893 98.5551 101.803 98.5551C108.097 98.5551 113.106 97.7202 116.831 96.0504C120.492 94.3811 122.322 92.2935 122.322 89.7888C122.322 87.6054 121.166 85.8715 118.854 84.5871C116.606 83.2381 113.523 82.1464 109.606 81.3115C104.404 80.2198 98.1424 79.449 90.8208 78.9995C83.4993 78.55 75.6965 78.0365 67.412 77.4583C59.1915 76.8802 51.0994 75.9171 43.1358 74.5681C35.3007 73.2197 28.1078 71.2931 21.5571 68.7883C15.0064 66.2836 9.77232 62.8158 5.85478 58.3845C2.00144 53.9529 0.0747681 48.2371 0.0747681 41.2369C0.0747681 33.9798 2.16199 27.7823 6.33646 22.6446C10.5751 17.4426 16.4193 13.1717 23.8692 9.83218C31.1262 6.62107 39.5715 4.24486 49.2048 2.70352C58.8383 1.09797 69.2099 0.295186 80.3206 0.295186C88.9265 0.295186 97.5642 0.552074 106.234 1.06585C114.968 1.51541 123.317 2.02919 131.281 2.60719C139.309 3.18519 146.566 3.73108 153.052 4.24486C159.603 4.69441 164.741 4.9192 168.466 4.9192C172.897 4.9192 177.713 4.59808 182.916 3.95586C188.182 3.24941 192.26 1.99708 195.15 0.198853C196.113 2.25397 196.948 5.17608 197.655 8.96518C198.425 12.7543 199.004 16.5434 199.389 20.3325C199.838 24.1217 200.063 27.108 200.063 29.2916H188.503C187.218 27.1722 184.232 24.9565 179.544 22.6446C174.92 20.3325 169.012 18.2774 161.819 16.4792C154.626 14.6168 146.405 13.1075 137.157 11.9516C127.973 10.7955 118.212 10.2176 107.872 10.2176C106.459 10.2176 104.564 10.4102 102.188 10.7955C99.8122 11.1166 97.6606 11.8231 95.734 12.9149C93.8714 14.0067 92.9402 15.7407 92.9402 18.1169C92.9402 20.2362 94.0318 21.9702 96.2158 23.3189C98.3991 24.6676 101.386 25.7915 105.175 26.6905C108.963 27.5897 113.363 28.3603 118.373 29.0026C123.381 29.5805 128.712 30.1586 134.363 30.7366C140.015 31.3788 145.827 32.0852 151.8 32.8559C157.773 33.6266 163.585 34.6541 169.236 35.9386C176.879 37.6083 183.815 39.8882 190.044 42.7783C196.338 45.6683 201.347 49.4253 205.072 54.0492C208.798 58.6089 210.66 64.357 210.66 71.2931C210.66 76.8802 208.765 82.0183 204.976 86.7064C201.251 91.3946 196.017 95.4405 189.274 98.8442C182.53 102.313 174.535 105.009 165.287 106.937C156.038 108.863 145.924 109.826 134.942 109.826C125.95 109.826 117.056 109.602 108.257 109.152C99.5231 108.702 90.9812 108.189 82.6326 107.611C74.2835 107.032 66.1593 106.519 58.2602 106.069C50.3609 105.62 42.8147 105.395 35.6218 105.395C31.3831 105.395 26.7913 105.78 21.8461 106.551C16.901 107.386 13.0156 108.831 10.1898 110.886ZM356.409 109.826C337.977 109.826 321.247 108.927 306.219 107.129C291.255 105.331 278.474 102.377 267.878 98.2661C257.281 94.1561 249.093 88.7935 243.313 82.1787C237.533 75.4994 234.643 67.2789 234.643 57.5172C234.643 47.9482 237.662 39.535 243.698 32.2779C249.735 24.9565 258.116 18.9518 268.841 14.2635C276.098 11.0524 284.126 8.45142 292.925 6.46054C301.723 4.40541 311.26 2.86408 321.536 1.83652C331.811 0.808966 342.6 0.295186 353.904 0.295186C368.996 0.295186 382.675 1.35485 394.942 3.47419C407.208 5.59354 417.709 8.86888 426.443 13.3002C435.113 17.7957 441.824 23.5436 446.577 30.5439C451.329 37.5441 453.705 45.9251 453.705 55.687H328.086C328.985 70.4582 333.224 80.862 340.802 86.8992C348.381 92.9357 360.198 95.9546 376.253 95.9546C384.024 95.9546 391.667 95.4082 399.18 94.3165C406.695 93.1608 413.566 91.4909 419.796 89.3076C426.09 87.1882 431.195 84.4585 435.113 81.1188C439.095 77.7791 441.085 73.9905 441.085 69.7514H453.705C453.705 76.8161 450.912 82.9173 445.324 88.0549C439.737 93.1285 432.448 97.239 423.456 100.385C414.401 103.532 404.093 105.877 392.533 107.418C380.974 109.024 368.932 109.826 356.409 109.826ZM327.99 44.8976H367.005C367.005 39.0534 366.523 34.0761 365.56 29.9659C364.661 25.7915 363.441 22.3877 361.899 19.7545C360.294 17.1214 358.399 15.1948 356.216 13.9745C354.032 12.6901 351.688 12.0479 349.183 12.0479C346.422 12.0479 343.789 12.6901 341.284 13.9745C338.844 15.1948 336.692 17.1214 334.83 19.7545C332.903 22.4519 331.33 25.8878 330.109 30.0622C328.953 34.1725 328.247 39.1176 327.99 44.8976ZM597.915 109.826C579.481 109.826 562.75 108.927 547.721 107.129C532.759 105.331 519.979 102.377 509.382 98.2661C498.785 94.1561 490.597 88.7935 484.817 82.1787C479.037 75.4994 476.147 67.2789 476.147 57.5172C476.147 47.9482 479.165 39.535 485.202 32.2779C491.24 24.9565 499.62 18.9518 510.346 14.2635C517.603 11.0524 525.63 8.45142 534.429 6.46054C543.227 4.40541 552.764 2.86408 563.04 1.83652C573.316 0.808966 584.107 0.295186 595.408 0.295186C610.502 0.295186 624.178 1.35485 636.447 3.47419C648.711 5.59354 659.212 8.86888 667.949 13.3002C676.616 17.7957 683.328 23.5436 688.081 30.5439C692.833 37.5441 695.209 45.9251 695.209 55.687H569.588C570.491 70.4582 574.729 80.862 582.306 86.8992C589.883 92.9357 601.704 95.9546 617.756 95.9546C625.53 95.9546 633.173 95.4082 640.685 94.3165C648.196 93.1608 655.073 91.4909 661.297 89.3076C667.594 87.1882 672.702 84.4585 676.616 81.1188C680.596 77.7791 682.589 73.9905 682.589 69.7514H695.209C695.209 76.8161 692.417 82.9173 686.827 88.0549C681.242 93.1285 673.95 97.239 664.96 100.385C655.905 103.532 645.596 105.877 634.038 107.418C622.475 109.024 610.436 109.826 597.915 109.826ZM569.495 44.8976H608.509C608.509 39.0534 608.027 34.0761 607.063 29.9659C606.166 25.7915 604.945 22.3877 603.406 19.7545C601.797 17.1214 599.902 15.1948 597.718 13.9745C595.539 12.6901 593.19 12.0479 590.688 12.0479C587.923 12.0479 585.295 12.6901 582.788 13.9745C580.346 15.1948 578.195 17.1214 576.333 19.7545C574.406 22.4519 572.835 25.8878 571.614 30.0622C570.459 34.1725 569.752 39.1176 569.495 44.8976ZM729.306 110.886C728.6 109.344 727.927 107.161 727.286 104.336C726.706 101.445 726.191 98.3947 725.742 95.1837C725.293 91.9081 724.943 88.8575 724.685 86.0319C724.488 83.1418 724.395 80.9261 724.395 79.3849H736.243C737.978 82.2751 741.285 84.908 746.163 87.284C751.047 89.6607 757.179 91.6836 764.564 93.3535C779.724 96.8213 798.508 98.5551 820.922 98.5551C827.213 98.5551 832.223 97.7202 835.951 96.0504C839.608 94.3811 841.442 92.2935 841.442 89.7888C841.442 87.6054 840.282 85.8715 837.971 84.5871C835.726 83.2381 832.639 82.1464 828.724 81.3115C823.523 80.2198 817.26 79.449 809.94 78.9995C802.62 78.55 794.813 78.0365 786.529 77.4583C778.312 76.8802 770.22 75.9171 762.254 74.5681C754.419 73.2197 747.225 71.2931 740.677 68.7883C734.124 66.2836 728.89 62.8158 724.97 58.3845C721.121 53.9529 719.194 48.2371 719.194 41.2369C719.194 33.9798 721.28 27.7823 725.452 22.6446C729.695 17.4426 735.537 13.1717 742.988 9.83218C750.242 6.62107 758.69 4.24486 768.32 2.70352C777.956 1.09797 788.325 0.295186 799.439 0.295186C808.046 0.295186 816.679 0.552074 825.352 1.06585C834.084 1.51541 842.433 2.02919 850.399 2.60719C858.425 3.18519 865.685 3.73108 872.173 4.24486C878.721 4.69441 883.856 4.9192 887.584 4.9192C892.013 4.9192 896.831 4.59808 902.033 3.95586C907.299 3.24941 911.378 1.99708 914.269 0.198853C915.232 2.25397 916.065 5.17608 916.771 8.96518C917.543 12.7543 918.123 16.5434 918.506 20.3325C918.955 24.1217 919.18 27.108 919.18 29.2916H907.622C906.336 27.1722 903.352 24.9565 898.66 22.6446C894.039 20.3325 888.132 18.2774 880.938 16.4792C873.744 14.6168 865.521 13.1075 856.274 11.9516C847.092 10.7955 837.331 10.2176 826.989 10.2176C825.576 10.2176 823.682 10.4102 821.306 10.7955C818.93 11.1166 816.778 11.8231 814.851 12.9149C812.989 14.0067 812.059 15.7407 812.059 18.1169C812.059 20.2362 813.148 21.9702 815.333 23.3189C817.517 24.6676 820.501 25.7915 824.295 26.6905C828.084 27.5897 832.48 28.3603 837.489 29.0026C842.499 29.5805 847.831 30.1586 853.482 30.7366C859.132 31.3788 864.946 32.0852 870.919 32.8559C876.892 33.6266 882.701 34.6541 888.356 35.9386C895.999 37.6083 902.93 39.8882 909.161 42.7783C915.457 45.6683 920.466 49.4253 924.189 54.0492C927.918 58.6089 929.779 64.357 929.779 71.2931C929.779 76.8802 927.885 82.0183 924.096 86.7064C920.368 91.3946 915.134 95.4405 908.389 98.8442C901.649 102.313 893.651 105.009 884.404 106.937C875.156 108.863 865.039 109.826 854.062 109.826C845.067 109.826 836.175 109.602 827.377 109.152C818.639 108.702 810.099 108.189 801.75 107.611C793.4 107.032 785.276 106.519 777.375 106.069C769.481 105.62 761.931 105.395 754.737 105.395C750.499 105.395 745.911 105.78 740.962 106.551C736.018 107.386 732.131 108.831 729.306 110.886ZM1008.48 109.826C998.396 109.826 989.242 108.799 981.024 106.744C972.801 104.753 966.253 101.831 961.369 97.9775C956.557 94.1238 954.148 89.532 954.148 84.2017C954.148 78.55 955.878 73.8619 959.349 70.1368C962.814 66.4122 967.408 63.458 973.124 61.2741C978.839 59.1548 985.36 57.6776 992.68 56.8427C1000.07 55.9438 1007.64 55.4943 1015.41 55.4943C1024.72 55.4943 1033.69 55.6229 1042.29 55.8797C1050.9 56.0724 1058.67 56.3615 1065.6 56.7464C1072.6 57.1318 1078.26 57.5813 1082.56 58.0954V37.1909C1082.56 27.0438 1079.64 19.8509 1073.79 15.6122C1070.84 13.4929 1067.02 11.9516 1062.33 10.9882C1057.7 10.0248 1052.25 9.54322 1045.95 9.54322C1036.58 9.54322 1027.78 9.8001 1019.56 10.3139C1031.83 10.3139 1041.68 12.0158 1049.13 15.4196C1056.58 18.7591 1060.31 23.2225 1060.31 28.8099C1060.31 33.0485 1058.31 36.6129 1054.33 39.5029C1050.35 42.3929 1044.99 44.5765 1038.25 46.0536C1031.5 47.4665 1023.98 48.1729 1015.7 48.1729C1009.99 48.1729 1004.53 47.627 999.326 46.5353C994.191 45.4435 989.63 43.9343 985.645 42.0076C981.664 40.1451 978.489 37.9294 976.107 35.3606C973.797 32.7274 972.642 29.9017 972.642 26.8832C972.642 22.195 975.308 18.149 980.635 14.7452C985.968 11.3414 992.778 8.57986 1001.06 6.46054C1009.09 4.40541 1017.79 2.86408 1027.17 1.83652C1036.61 0.808966 1046.37 0.295186 1056.45 0.295186C1069.94 0.295186 1083.23 0.519964 1096.34 0.969521C1109.5 1.41908 1121.99 2.9283 1133.81 5.49719C1144.79 7.87344 1153.75 11.7589 1160.69 17.1535C1167.62 22.484 1171.09 29.8374 1171.09 39.2139V62.2377C1171.09 68.2102 1171.47 73.027 1172.24 76.6875C1173.08 80.3485 1174.2 83.2064 1175.62 85.2611C1177.03 87.2523 1178.7 88.6008 1180.63 89.3076C1182.55 90.0138 1184.61 90.3669 1186.79 90.3669C1190.84 90.3669 1194.37 88.7294 1197.39 85.4538C1200.41 82.1787 1202.04 77.426 1202.3 71.1967H1213.19C1213.19 80.4449 1211.1 87.5731 1206.93 92.5826C1202.75 97.5921 1197.84 101.22 1192.18 103.468C1185.38 106.23 1177.96 107.964 1169.93 108.671C1161.97 109.441 1153.43 109.826 1144.31 109.826C1129.73 109.826 1117.5 108.96 1107.6 107.225C1097.78 105.491 1090.81 101.317 1086.7 94.7019C1084.01 96.5645 1080.57 98.3947 1076.4 100.193C1072.28 101.927 1067.14 103.532 1060.98 105.009C1054.75 106.423 1047.33 107.579 1038.73 108.478C1030.12 109.377 1020.04 109.826 1008.48 109.826ZM1055.39 91.8118C1059.12 91.8118 1063.35 91.5873 1068.11 91.1378C1072.92 90.6883 1078.06 89.3393 1083.52 87.0919C1082.88 84.5871 1082.56 81.4402 1082.56 77.651V67.3435C1079.8 67.2149 1077 67.1508 1074.18 67.1508C1071.35 67.0862 1068.62 67.0544 1065.99 67.0544C1061.62 67.0544 1057.77 67.2149 1054.43 67.5357C1051.15 67.8571 1048.39 68.467 1046.14 69.3665C1041.65 71.2931 1039.4 74.6645 1039.4 79.4813C1039.4 82.0501 1040.56 84.7475 1042.87 87.5731C1045.24 90.3992 1049.42 91.8118 1055.39 91.8118ZM1268.57 105.491C1266.39 100.674 1263.76 94.6056 1260.67 87.284C1257.59 79.9631 1254.09 71.903 1250.17 63.1049C1246.58 55.0771 1242.92 47.627 1239.19 40.7552C1235.53 33.8835 1232.1 28.6815 1228.89 25.1492C1226.38 22.4519 1223.36 20.2683 1219.83 18.5985C1216.29 16.8645 1212.76 15.6122 1209.23 14.8415C1205.7 14.0709 1202.62 13.6856 1199.99 13.6856V4.63019H1341.59V13.6856C1337.04 13.6856 1333.41 14.392 1330.71 15.8049C1328.08 17.1535 1326.76 18.9839 1326.76 21.2959C1326.76 23.0941 1327.47 26.4979 1328.88 31.5072C1330.29 36.4523 1332.25 42.5535 1334.75 49.8106C1337.13 56.811 1339.83 64.0038 1342.85 71.3894C1345.87 78.7104 1348.89 85.422 1351.9 91.5232C1353.96 87.4127 1356.17 82.2751 1358.55 76.1099C1360.99 69.88 1363.4 63.2653 1365.77 56.2651C1368.03 49.5858 1369.92 43.2599 1371.46 37.2872C1373.06 31.2503 1373.87 26.7548 1373.87 23.8006C1373.87 19.4334 1372.49 16.6719 1369.72 15.5159C1367.03 14.2957 1362.73 13.6856 1356.82 13.6856V4.63019H1486.67V13.6856C1480.83 13.6856 1476.49 14.5204 1473.67 16.1902C1470.78 17.7957 1469.33 19.7867 1469.33 22.1629C1469.33 24.0253 1470.07 27.5575 1471.55 32.7596C1473.09 37.8974 1475.05 43.8058 1477.42 50.4849C1479.8 57.1641 1482.6 64.3247 1485.81 71.967C1489.02 79.5453 1492.1 86.1924 1495.05 91.9081C1496.72 88.6971 1498.91 83.7199 1501.61 76.9765C1504.37 70.1691 1507.13 62.7194 1509.89 54.6273C1516.12 36.7093 1519.24 26.0162 1519.24 22.5482C1519.24 20.1078 1518.01 18.0205 1515.57 16.2866C1513.2 14.5526 1508.64 13.6856 1501.9 13.6856V4.63019H1567.69V13.6856C1559.92 13.6856 1553.34 14.7452 1547.94 16.8645C1542.61 18.9197 1538.63 22.195 1535.99 26.6905C1533.82 30.4155 1531.15 35.778 1528 42.7783C1524.92 49.7785 1521.68 57.4849 1518.27 65.8981C1511.53 82.9173 1506.52 96.115 1503.24 105.491H1411.73C1410.38 102.28 1408.68 98.0093 1406.62 92.679C1404.63 87.3487 1402.48 81.6646 1400.17 75.6281C1397.92 69.9123 1395.48 64.0356 1392.84 57.999C1390.21 51.8978 1387.83 46.9848 1385.71 43.2599C1383.73 46.9206 1381.48 51.5446 1378.97 57.1318C1376.47 62.6548 1373.93 68.6597 1371.36 75.1463C1368.99 81.1834 1366.77 86.9309 1364.71 92.3899C1362.66 97.7848 1361.06 102.152 1359.9 105.491H1268.57Z" fill="white"/>
</g>
<defs>
<clipPath id="clip0_34_2">
<rect width="701" height="111" fill="white"/>
</clipPath>
</defs>
</svg>
