<svg width="725" height="271" viewBox="0 0 725 271" fill="none" xmlns="http://www.w3.org/2000/svg">
<path d="M0.23468 83.5736H25.1239V46.6491C26.857 47.2267 28.4697 47.7082 29.9621 48.0692C31.4545 48.4544 34.0541 48.6469 37.7129 48.6469C40.9384 48.6469 43.7306 48.3099 46.1136 47.636C48.4726 46.962 50.7352 45.8788 52.9016 44.3383V83.5496H98.7805V87.5453H52.9016V181.133C52.9016 186.476 53.5034 190.809 54.6828 194.155C55.8623 197.501 57.4269 200.076 59.3766 201.882C61.3264 203.687 63.4205 204.89 65.6832 205.468C67.9458 206.046 70.1603 206.335 72.3027 206.335C79.8368 206.335 85.9267 203.904 90.5483 199.041C95.1699 194.179 98.1306 188.595 99.4304 182.288L103.956 183.708C103.306 186.187 102.343 188.956 101.043 192.013C99.7434 195.07 97.7455 197.982 95.0736 200.75C92.3777 203.518 88.8874 205.805 84.5788 207.61C80.2701 209.416 74.8782 210.33 68.4272 210.33C52.2757 210.33 41.0106 207.562 34.6559 202.026C28.3012 196.49 25.1239 188.667 25.1239 178.557V87.5453H0.23468V83.5496V83.5736Z" fill="white"/>
<path d="M221.326 180.073C223.083 177.137 226.164 175.019 230.618 175.019C232.278 175.019 233.747 175.356 235.023 175.861C236.226 174.104 237.357 172.299 238.392 170.421C242.701 162.502 244.843 154.053 244.843 145.099C244.843 136.144 242.532 127.07 237.887 119.054C233.241 111.038 227.32 104.13 220.123 98.305C212.901 92.4798 204.814 87.9545 195.883 84.705C186.953 81.4554 178.167 79.8427 169.55 79.8427C160.933 79.8427 152.147 81.4554 143.217 84.705C134.286 87.9545 126.198 92.4798 118.977 98.305C111.756 104.13 105.835 111.038 101.213 119.054C96.5673 127.07 94.2565 135.759 94.2565 145.099C94.2565 154.438 96.3988 162.502 100.732 170.421C105.04 178.34 110.697 185.273 117.701 191.17C124.706 197.092 132.722 201.761 141.772 205.203C149.234 208.02 156.817 209.681 164.567 210.186C164.278 209.873 163.99 209.536 163.677 209.247C163.364 208.934 161.607 207.418 163.316 208.742C162.136 207.827 161.125 206.816 160.307 205.733C157.852 205.396 155.444 204.963 153.11 204.361C147.934 203.037 143.409 200.221 139.534 195.912C135.658 191.627 132.529 185.465 130.17 177.45C127.787 169.434 126.608 158.65 126.608 145.099C126.608 133.641 127.474 124.061 129.183 116.334C130.892 108.607 133.54 102.301 137.103 97.4384C140.665 92.5761 145.118 89.0858 150.51 86.9917C155.902 84.8975 162.257 83.8384 169.574 83.8384C176.892 83.8384 183.246 84.8975 188.638 86.9917C194.03 89.0858 198.483 92.5761 202.046 97.4384C205.608 102.301 208.232 108.607 209.965 116.334C211.698 124.061 212.54 133.641 212.54 145.099C212.54 157.904 211.457 168.182 209.363 176.054C210.326 175.789 211.337 175.62 212.492 175.62C216.632 175.62 219.569 177.474 221.35 180.073H221.326Z" fill="white"/>
<path d="M420.631 206.359H368.614V177.45H367.964C366.039 181.278 363.704 185.129 361.032 189.053C358.336 192.952 354.99 196.49 351.018 199.644C347.023 202.797 342.401 205.373 337.13 207.37C331.858 209.368 325.648 210.379 318.547 210.379C309.93 210.379 302.925 209.513 297.533 207.804C292.141 206.095 287.953 204.265 284.944 202.364C283.428 201.401 281.767 200.221 279.937 198.777C278.108 197.357 276.423 195.383 274.931 192.904C273.414 190.425 272.138 187.223 271.055 183.324C269.972 179.424 269.442 174.586 269.442 168.881V87.5942H244.553V83.5984H297.22V171.457C297.22 176.415 297.581 180.989 298.351 185.201C299.098 189.39 300.566 193.072 302.708 196.226C304.851 199.379 307.667 201.858 311.109 203.664C314.551 205.469 319.076 206.384 324.685 206.384C329.427 206.384 334.313 205.156 339.392 202.653C344.447 200.173 349.093 196.635 353.281 192.061C357.469 187.488 360.984 182 363.776 175.597C366.568 169.194 367.964 161.997 367.964 153.981V87.5701H343.412V83.5743H395.766V202.34H420.655V206.359H420.631Z" fill="white"/>
<path d="M549.89 174.874C549.24 176.968 548.013 179.977 546.183 183.9C544.354 187.824 541.441 191.723 537.47 195.647C533.474 199.57 528.106 202.988 521.318 205.949C514.53 208.91 505.744 210.378 494.985 210.378C486.801 210.378 478.28 209.223 469.446 206.936C460.612 204.649 452.524 200.966 445.206 195.912C437.889 190.857 431.895 184.237 427.274 176.029C422.628 167.821 420.317 157.711 420.317 145.7C420.317 136.36 422.315 127.671 426.287 119.655C430.282 111.64 435.65 104.683 442.438 98.7618C449.226 92.8404 457.194 88.2188 466.34 84.8729C475.487 81.5271 485.236 79.8662 495.586 79.8662C501.412 79.8662 507.381 80.4921 513.519 81.7197C519.657 82.9713 525.266 84.8729 530.321 87.4485C535.375 90.0241 539.588 93.3699 542.934 97.462C546.28 101.578 547.94 106.585 547.94 112.482C547.94 116.502 546.496 119.776 543.584 122.351C540.671 124.927 536.531 126.227 531.139 126.227C527.48 126.227 523.966 125.504 520.644 124.084C517.298 122.664 515.637 120.233 515.637 116.791C515.637 114.119 516.384 110.869 517.9 107.066C519.392 103.263 520.163 100.11 520.163 97.6305C520.163 93.2496 517.683 89.8556 512.725 87.4726C507.766 85.0896 502.062 83.886 495.611 83.886C490.869 83.886 485.958 84.4156 480.903 85.4506C475.848 86.5097 471.203 89.1335 467.014 93.3218C462.802 97.5342 459.36 103.817 456.664 112.217C453.968 120.618 452.62 132.076 452.62 146.566C452.62 154.775 453.222 162.501 454.401 169.747C455.581 176.992 457.747 183.347 460.852 188.787C463.981 194.227 468.29 198.511 473.778 201.664C479.266 204.818 486.44 206.382 495.274 206.382C504.757 206.382 512.556 205.155 518.694 202.651C524.832 200.172 529.671 197.163 533.233 193.625C536.796 190.086 539.419 186.524 541.152 182.889C542.861 179.279 544.161 176.294 545.028 174.007L549.866 174.874H549.89Z" fill="white"/>
<path d="M543.441 202.363H568.33V4.01982H543.441V0H596.108V112.483H596.758C597.841 110.004 599.67 106.898 602.246 103.192C604.821 99.4846 608.336 95.9462 612.741 92.6004C617.146 89.2545 622.537 86.3901 628.892 84.0071C635.247 81.6241 642.829 80.4205 651.663 80.4205C665.889 80.4205 677.467 83.4775 686.397 89.5915C695.327 95.7055 699.805 105.43 699.805 118.789V202.363H724.694V206.383H647.138V202.363H672.027V109.907C672.027 102.469 670.029 96.3554 666.057 91.5894C662.062 86.8234 655.875 84.4404 647.475 84.4404C640.566 84.4404 634.019 85.7883 627.761 88.4602C621.502 91.132 616.014 94.863 611.272 99.629C606.53 104.395 602.823 110.028 600.127 116.527C597.432 123.026 596.084 130.079 596.084 137.709V202.387H620.973V206.407H543.417V202.387L543.441 202.363Z" fill="white"/>
<path d="M204.475 194.396C202.91 190.256 198.433 188.113 194.557 189.341C190.321 190.689 187.89 195.744 189.767 200.269L194.485 212.064C187.649 201.785 180.813 191.531 173.977 181.277C171.859 177.426 166.9 176.27 163.506 178.509C160.329 180.603 159.318 185.128 161.508 188.595L184.375 228.215C179.296 225.953 174.218 223.666 169.139 221.403C165.239 219.863 160.81 221.475 158.836 225.038C156.766 228.769 157.97 233.607 161.653 235.99C173.856 243.524 186.036 251.082 198.24 258.617C200.358 259.916 202.043 261.794 203.102 264.033L203.56 265.019L203.608 265.068C204.45 266.825 205.991 268.173 207.893 268.702C212.899 270.122 222.865 271.783 233.022 266.512C240.484 262.636 244.673 256.787 246.767 253.056C247.657 251.444 247.778 249.518 247.128 247.809C246.165 245.233 245.178 242.658 244.191 240.082C243.276 237.675 243.276 234.955 244.408 232.62C245.226 230.887 246.02 228.649 246.357 225.953C246.983 220.753 245.539 216.709 244.769 214.928L234.322 187.175C232.974 183.781 229.46 182.023 226.596 182.794C223.178 183.708 220.867 188.161 222.648 192.253C223.707 195.046 223.876 195.431 224.935 198.223C223.322 194.203 222.648 192.59 221.035 188.571C218.676 185.778 215.042 184.503 211.648 185.321C207.628 186.284 204.643 189.991 204.475 194.396ZM204.475 194.396C206.111 198.512 207.17 201.16 208.831 205.3C207.195 201.184 206.135 198.536 204.475 194.396Z" stroke="white" stroke-width="1.61274" stroke-linecap="round" stroke-linejoin="round"/>
<path d="M202.356 219.478L212.924 242.2" stroke="white" stroke-width="1.61274" stroke-linecap="round" stroke-linejoin="round"/>
<path d="M212.105 215L222.648 237.723" stroke="white" stroke-width="1.61274" stroke-linecap="round" stroke-linejoin="round"/>
<path d="M221.686 210.523L232.253 233.246" stroke="white" stroke-width="1.61274" stroke-linecap="round" stroke-linejoin="round"/>
</svg>
